<svg width="40" height="26" viewBox="0 0 40 26" fill="none" xmlns="http://www.w3.org/2000/svg">
<g clip-path="url(#clip0_654_39)">
<path d="M35.5773 1H4.09398C2.204 1 0.671875 2.53213 0.671875 4.4221V21.5779C0.671875 23.4679 2.204 25 4.09398 25H35.5773C37.4672 25 38.9994 23.4679 38.9994 21.5779V4.4221C38.9994 2.53213 37.4672 1 35.5773 1Z" fill="white" stroke="#666666" style="fill:white;fill-opacity:1;stroke:#666666;stroke:color(display-p3 0.4000 0.4000 0.4000);stroke-opacity:1;" stroke-width="0.273768"/>
<g clip-path="url(#clip1_654_39)">
<path d="M11.4962 8.91988C11.8337 8.48596 12.0748 7.90741 12.0025 7.32886C11.4962 7.35296 10.8936 7.66635 10.532 8.07616C10.2186 8.43775 9.92933 9.04041 10.0016 9.59486C10.5802 9.66718 11.1346 9.3538 11.4962 8.91988ZM12.0025 9.7395C11.1829 9.69128 10.4838 10.1975 10.0981 10.1975C9.71237 10.1975 9.10971 9.7636 8.45884 9.7636C7.61511 9.78771 6.84371 10.2457 6.40979 11.0171C5.54196 12.5358 6.16873 14.7777 7.03656 16.0072C7.44637 16.6098 7.9526 17.2848 8.60347 17.2607C9.23024 17.2366 9.4713 16.8509 10.2186 16.8509C10.9659 16.8509 11.1829 17.2607 11.8578 17.2366C12.5328 17.2125 12.9667 16.6339 13.3765 16.0072C13.8587 15.3081 14.0515 14.6331 14.0515 14.609C14.0274 14.5849 12.7257 14.1028 12.7257 12.6082C12.7016 11.3546 13.7381 10.752 13.7863 10.7279C13.2319 9.86003 12.3159 9.7636 12.0025 9.7395Z" fill="black" style="fill:black;fill-opacity:1;"/>
<path d="M19.0899 8.02783C20.8737 8.02783 22.1032 9.25726 22.1032 11.017C22.1032 12.8009 20.8496 14.0303 19.0416 14.0303H17.089V17.1401H15.6667V8.02783H19.0899ZM17.089 12.8491H18.7042C19.9336 12.8491 20.6327 12.1741 20.6327 11.0411C20.6327 9.88402 19.9336 9.23315 18.7042 9.23315H17.0649V12.8491H17.089ZM22.4648 15.2839C22.4648 14.1268 23.3567 13.4036 24.9477 13.3071L26.7798 13.2107V12.7045C26.7798 11.9572 26.2736 11.5233 25.4539 11.5233C24.6584 11.5233 24.1763 11.909 24.0558 12.4875H22.754C22.8263 11.2822 23.8629 10.3903 25.5022 10.3903C27.1173 10.3903 28.1539 11.234 28.1539 12.5839V17.1642H26.8521V16.0794H26.828C26.4423 16.8267 25.5986 17.2847 24.7308 17.2847C23.3808 17.2847 22.4648 16.4651 22.4648 15.2839ZM26.7798 14.6812V14.1509L25.1406 14.2473C24.3209 14.2955 23.8629 14.6571 23.8629 15.2356C23.8629 15.8142 24.3451 16.1999 25.0682 16.1999C26.0325 16.1999 26.7798 15.549 26.7798 14.6812ZM29.3592 19.623V18.5141C29.4556 18.5382 29.6967 18.5382 29.7931 18.5382C30.4199 18.5382 30.7574 18.2731 30.9743 17.5981C30.9743 17.574 31.0948 17.1883 31.0948 17.1883L28.6842 10.5349H30.1547L31.8421 15.9588H31.8662L33.5537 10.5349H35.0001L32.5171 17.5499C31.9386 19.165 31.2877 19.6712 29.9136 19.6712C29.8172 19.6471 29.4797 19.6471 29.3592 19.623Z" fill="black" style="fill:black;fill-opacity:1;"/>
</g>
</g>
<defs>
<clipPath id="clip0_654_39">
<rect width="40" height="26" fill="white" style="fill:white;fill-opacity:1;"/>
</clipPath>
<clipPath id="clip1_654_39">
<rect width="29" height="29" fill="white" style="fill:white;fill-opacity:1;" transform="translate(6 -1)"/>
</clipPath>
</defs>
</svg>
