<svg width="40" height="26" viewBox="0 0 40 26" fill="none" xmlns="http://www.w3.org/2000/svg">
<g clip-path="url(#clip0_654_21)">
<path d="M35.9054 1H4.4221C2.53213 1 1 2.53213 1 4.4221V21.5779C1 23.4679 2.53213 25 4.4221 25H35.9054C37.7954 25 39.3275 23.4679 39.3275 21.5779V4.4221C39.3275 2.53213 37.7954 1 35.9054 1Z" fill="white" stroke="#666666" style="fill:white;fill-opacity:1;stroke:#666666;stroke:color(display-p3 0.4000 0.4000 0.4000);stroke-opacity:1;" stroke-width="0.273768"/>
<path d="M21.9882 17.7183L21.8887 17.6884L21.8465 17.6039L21.8042 17.5194L21.8266 17.4746L21.8514 17.4299L21.9061 17.4125L21.9583 17.3976L21.9906 17.4423C22.0105 17.4697 22.0354 17.5045 22.0503 17.5219L22.0777 17.5517H22.1721H22.2666L22.3039 17.5095C22.3262 17.4846 22.3561 17.4398 22.371 17.41L22.4008 17.3528L22.3735 17.3006L22.3461 17.2509L22.2169 17.1689C22.1448 17.1216 22.0677 17.062 22.0429 17.0346L21.9956 16.9824V16.9004V16.8159L22.0329 16.7289L22.0702 16.6394L22.1398 16.5897C22.1796 16.5623 22.2492 16.5275 22.2914 16.5101L22.3735 16.4778L22.4829 16.4927L22.5898 16.5101L22.6469 16.5698L22.7041 16.6319L22.6768 16.6941L22.6469 16.7562H22.6246C22.6096 16.7562 22.555 16.7338 22.5003 16.7065L22.4033 16.6543L22.3362 16.6717L22.2716 16.6866L22.2318 16.7463L22.1945 16.8059L22.2094 16.8656L22.2243 16.9277L22.3735 17.0172L22.5251 17.1092L22.5649 17.1689L22.6047 17.2285L22.5898 17.328L22.5773 17.4249L22.5226 17.5144L22.4679 17.6014L22.366 17.6611L22.2616 17.7208L22.1746 17.7332L22.0876 17.7456L21.9882 17.7183Z" fill="#6F7071" style="fill:#6F7071;fill:color(display-p3 0.4353 0.4392 0.4431);fill-opacity:1;"/>
<path d="M8.13673 17.6759L8.05718 17.6237L8.02983 17.5367L8 17.4497L8.0174 17.3329C8.03729 17.1986 8.14419 16.7313 8.18147 16.6119L8.20882 16.5324L8.25357 16.5075L8.3008 16.4827L8.33809 16.4976L8.37786 16.5125V16.5548C8.37786 16.5771 8.33809 16.7536 8.29086 16.9475C8.24362 17.1439 8.20385 17.3353 8.20385 17.3726V17.4422L8.23617 17.487L8.27097 17.5342L8.39527 17.5442L8.51956 17.5566L8.59663 17.5168L8.67618 17.477L8.71844 17.4124L8.75821 17.3503L8.86014 16.9351L8.96206 16.52L9.03415 16.5125L9.10376 16.5026L9.12862 16.5274L9.15099 16.5498L9.05156 16.9525L8.95212 17.3552L8.89494 17.4572L8.83776 17.5616L8.73087 17.6386L8.62149 17.7132L8.42013 17.7207L8.21628 17.7281L8.13673 17.6759Z" fill="#6F7071" style="fill:#6F7071;fill:color(display-p3 0.4353 0.4392 0.4431);fill-opacity:1;"/>
<path d="M9.14089 17.6884L9.12598 17.6536L9.15829 17.5343C9.17818 17.4697 9.24033 17.2186 9.29751 16.9799C9.35468 16.7413 9.40937 16.53 9.4218 16.5101L9.43921 16.4778L9.74746 16.888L10.0557 17.3006L10.0731 17.2832C10.0831 17.2733 10.1253 17.1092 10.1701 16.9178L10.2471 16.5698L10.272 16.5399L10.2969 16.5076H10.369H10.441V16.525C10.441 16.5325 10.3864 16.7711 10.3192 17.052C10.2521 17.3329 10.19 17.6014 10.18 17.6462L10.1626 17.7257H10.1427C10.1303 17.7257 10.0682 17.6561 10.0035 17.5716C9.93888 17.4846 9.8121 17.3205 9.7226 17.2037C9.6356 17.0868 9.55853 16.9874 9.55356 16.9824C9.54859 16.9775 9.52621 16.9899 9.49887 17.0147L9.45412 17.057L9.41186 17.2609C9.387 17.3727 9.3522 17.5169 9.33231 17.5815L9.29502 17.6959L9.25773 17.7108C9.23536 17.7183 9.20304 17.7257 9.18564 17.7257H9.15332L9.14089 17.6884Z" fill="#6F7071" style="fill:#6F7071;fill:color(display-p3 0.4353 0.4392 0.4431);fill-opacity:1;"/>
<path d="M10.451 17.6884L10.436 17.6511L10.5653 17.1117L10.6946 16.5698L10.7219 16.5374L10.7468 16.5051L10.8114 16.5126L10.876 16.52L10.8711 16.5946C10.8686 16.6369 10.8139 16.8929 10.7493 17.1664L10.6349 17.6636L10.5951 17.6959C10.5728 17.7108 10.5355 17.7257 10.5106 17.7257H10.4634L10.451 17.6884Z" fill="#6F7071" style="fill:#6F7071;fill:color(display-p3 0.4353 0.4392 0.4431);fill-opacity:1;"/>
<path d="M10.9307 17.7083C10.9208 17.7008 10.9133 17.661 10.9133 17.6238C10.9133 17.5517 11.1246 16.6542 11.1619 16.5647L11.1868 16.5076H11.4826H11.7809L11.7958 16.5349L11.8132 16.5598L11.7983 16.6219L11.7834 16.6816H11.5771H11.3707L11.331 16.7139L11.2887 16.7437L11.2738 16.8631L11.2564 16.9799H11.4702H11.684V17.0545C11.684 17.0967 11.6815 17.1291 11.679 17.1315C11.674 17.1315 11.5721 17.139 11.4478 17.1465L11.2241 17.1589L11.2092 17.1738C11.1992 17.1837 11.1744 17.2807 11.1495 17.3901C11.1271 17.4995 11.0898 17.6188 11.0724 17.6586L11.0351 17.7257H10.9904C10.9655 17.7257 10.9382 17.7182 10.9307 17.7083Z" fill="#6F7071" style="fill:#6F7071;fill:color(display-p3 0.4353 0.4392 0.4431);fill-opacity:1;"/>
<path d="M11.7488 17.7059L11.7363 17.6835L11.8457 17.2261C11.9079 16.975 11.97 16.714 11.9874 16.6444L12.0197 16.5201L12.0918 16.5126L12.1614 16.5027L12.1838 16.5251L12.2062 16.5474L12.0943 17.0198C12.0322 17.2783 11.9675 17.5393 11.9501 17.6015L11.9178 17.7133L11.8407 17.7208L11.7637 17.7283L11.7488 17.7059Z" fill="#6F7071" style="fill:#6F7071;fill:color(display-p3 0.4353 0.4392 0.4431);fill-opacity:1;"/>
<path d="M12.2136 17.6859L12.2012 17.6536L12.2385 17.497C12.2583 17.41 12.318 17.1663 12.3677 16.955L12.4597 16.5697L12.4846 16.5399L12.5094 16.5076H12.8077H13.1036L13.116 16.5424L13.1309 16.5772L13.1011 16.6294L13.0737 16.6816H12.8525H12.6312L12.6188 16.7015C12.6114 16.7139 12.5989 16.781 12.589 16.8506L12.5716 16.9799H12.7879H13.0016V17.0271V17.0769L12.9644 17.1117L12.9271 17.1489L12.7257 17.1514C12.6138 17.1514 12.5169 17.1564 12.5144 17.1614C12.5094 17.1663 12.4895 17.2434 12.4721 17.3354L12.4373 17.4995L12.4498 17.5144C12.4572 17.5218 12.5567 17.5268 12.671 17.5268H12.8774V17.584C12.8774 17.6138 12.8674 17.6536 12.8575 17.671L12.8376 17.7008L12.5318 17.7108L12.226 17.7207L12.2136 17.6859Z" fill="#6F7071" style="fill:#6F7071;fill:color(display-p3 0.4353 0.4392 0.4431);fill-opacity:1;"/>
<path d="M15.3882 17.681V17.6338L15.5945 17.3454C15.7064 17.1838 15.8754 16.9427 15.9724 16.806L16.1464 16.5574H16.1887C16.2135 16.5574 16.2334 16.5623 16.2334 16.5698C16.2334 16.5748 16.2831 16.8184 16.3453 17.1068C16.4074 17.3976 16.4571 17.6487 16.4571 17.6661V17.7009L16.3925 17.7158L16.3304 17.7332L16.303 17.7059C16.2881 17.691 16.2632 17.6214 16.2458 17.5468L16.216 17.415H15.9848H15.7511L15.694 17.502C15.6616 17.5493 15.6069 17.6189 15.5721 17.6586L15.5075 17.7258H15.4478H15.3882V17.681ZM16.1539 17.154C16.1588 17.1093 16.1563 17.0471 16.1489 17.0148L16.134 16.9551H16.1017H16.0693L15.9774 17.0794C15.9276 17.1465 15.8854 17.2087 15.8854 17.2137C15.8854 17.2261 16.0768 17.2485 16.1215 17.241L16.1464 17.236L16.1539 17.154Z" fill="#6F7071" style="fill:#6F7071;fill:color(display-p3 0.4353 0.4392 0.4431);fill-opacity:1;"/>
<path d="M16.7627 17.686L16.7478 17.6463L16.8025 17.43C16.8299 17.3107 16.8547 17.1938 16.8547 17.169C16.8547 17.1441 16.81 16.9999 16.7528 16.8508L16.6509 16.5798L16.6807 16.545L16.7105 16.5077H16.7578H16.805L16.8398 16.5649C16.8597 16.5947 16.8995 16.7016 16.9318 16.801C16.9641 16.898 16.9939 16.98 17.0014 16.9775C17.0163 16.9775 17.3494 16.6047 17.3768 16.5574L17.3942 16.5301L17.4837 16.5152L17.5757 16.5002V16.5301C17.5757 16.545 17.4712 16.6792 17.3469 16.8259C17.2202 16.9726 17.1008 17.1118 17.0809 17.1366L17.0486 17.1789L17.0014 17.3852C16.9765 17.4996 16.9442 17.6239 16.9318 17.6612L16.9044 17.7258H16.8423H16.7777L16.7627 17.686Z" fill="#6F7071" style="fill:#6F7071;fill:color(display-p3 0.4353 0.4392 0.4431);fill-opacity:1;"/>
<path d="M17.362 17.691L17.3496 17.6562L17.546 17.2386C17.6554 17.0074 17.7697 16.7588 17.7996 16.6867L17.8567 16.5549L17.894 16.5624L17.9338 16.5698L18.0009 16.893C18.0407 17.072 18.073 17.251 18.073 17.2908V17.3654L18.1227 17.3032C18.1501 17.2684 18.2769 17.0869 18.4037 16.9005L18.6324 16.5599L18.6771 16.5574H18.7243L18.7069 17.1217L18.692 17.686L18.6622 17.7059C18.6448 17.7159 18.6125 17.7258 18.5901 17.7258H18.5478L18.5304 17.6985L18.5155 17.6711L18.518 17.3877L18.523 17.1043H18.5006C18.4757 17.1043 18.4012 17.2013 18.1501 17.5468L18.0183 17.7258L17.9984 17.7134C17.9885 17.7059 17.9711 17.6587 17.9612 17.609C17.9512 17.5568 17.9214 17.4176 17.894 17.2982L17.8443 17.0795H17.817H17.7871L17.6628 17.3703C17.5957 17.5294 17.5261 17.6736 17.5062 17.691L17.4739 17.7258H17.4242H17.3745L17.362 17.691Z" fill="#6F7071" style="fill:#6F7071;fill:color(display-p3 0.4353 0.4392 0.4431);fill-opacity:1;"/>
<path d="M18.8684 17.6462C18.8684 17.5667 19.1046 16.5623 19.1269 16.5375L19.1468 16.5201L19.4551 16.5126L19.7633 16.5027V16.5449C19.7633 16.5673 19.7509 16.6071 19.7385 16.6344L19.7111 16.6817H19.5048H19.296L19.2711 16.714L19.2438 16.7463L19.2363 16.8582L19.2289 16.9676L19.4402 16.98L19.6515 16.9924L19.644 17.0521C19.6415 17.0869 19.6316 17.1192 19.6266 17.1267C19.6192 17.1316 19.5222 17.1416 19.4079 17.1465C19.296 17.154 19.1916 17.1615 19.1767 17.1664L19.1493 17.1739L19.122 17.3181C19.1046 17.3951 19.0921 17.4747 19.0921 17.4946V17.5269H19.3034H19.5148V17.599V17.6736L19.4874 17.691L19.4601 17.7059L19.1642 17.7109L18.8684 17.7133V17.6462Z" fill="#6F7071" style="fill:#6F7071;fill:color(display-p3 0.4353 0.4392 0.4431);fill-opacity:1;"/>
<path d="M19.7235 17.6238C19.7384 17.5343 19.9447 16.6443 19.977 16.5399C19.982 16.5225 19.9944 16.5076 20.0069 16.5076C20.0267 16.5076 20.3226 16.878 20.6234 17.2758L20.6532 17.3131L20.7079 17.0645C20.7377 16.9302 20.78 16.7587 20.7999 16.6891L20.8347 16.5573L20.872 16.52C20.9192 16.4728 20.9416 16.4728 20.9813 16.52L21.0112 16.5548L20.8844 17.0943C20.77 17.5791 20.7253 17.7257 20.6979 17.7257C20.693 17.7257 20.6457 17.6661 20.5935 17.5965C20.5438 17.5244 20.4121 17.3504 20.3002 17.2111L20.0988 16.9551H20.074H20.0491L19.9696 17.3205C19.9248 17.5194 19.885 17.686 19.8801 17.6909C19.8751 17.6959 19.8353 17.7083 19.7881 17.7158L19.7061 17.7332L19.7235 17.6238Z" fill="#6F7071" style="fill:#6F7071;fill:color(display-p3 0.4353 0.4392 0.4431);fill-opacity:1;"/>
<path d="M21.2152 17.7058L21.1854 17.6884L21.2948 17.2285C21.3544 16.9774 21.4116 16.7512 21.4191 16.7263L21.4315 16.6841L21.2873 16.6766L21.1431 16.6692L21.1357 16.6244L21.1257 16.5797L21.1556 16.5449L21.1854 16.5076H21.5682H21.9511V16.5523C21.9511 16.5772 21.9362 16.617 21.9212 16.6393L21.8889 16.6791L21.7522 16.6866L21.618 16.694L21.4986 17.1912L21.3793 17.6859L21.347 17.7058C21.3097 17.7307 21.25 17.7307 21.2152 17.7058Z" fill="#6F7071" style="fill:#6F7071;fill:color(display-p3 0.4353 0.4392 0.4431);fill-opacity:1;"/>
<path d="M23.2635 17.7083L23.2188 17.6983V17.6586C23.2188 17.6088 23.4624 16.5598 23.4823 16.5299L23.4947 16.5076H23.5817H23.6662L23.6637 16.5523C23.6637 16.5747 23.5991 16.8457 23.522 17.1539L23.3803 17.7133L23.343 17.7157C23.3232 17.7182 23.2859 17.7157 23.2635 17.7083Z" fill="#6F7071" style="fill:#6F7071;fill:color(display-p3 0.4353 0.4392 0.4431);fill-opacity:1;"/>
<path d="M23.6763 17.6884L23.6614 17.6536L23.736 17.3478C23.7757 17.1788 23.8354 16.9327 23.8677 16.8009L23.9249 16.5573H23.9796H24.0343L24.0765 16.6244C24.1014 16.6592 24.2133 16.8084 24.3251 16.9526C24.437 17.0967 24.5364 17.2384 24.5464 17.2633L24.5638 17.3105L24.5862 17.2882C24.6085 17.2633 24.7602 16.6965 24.7602 16.6269V16.5846L24.7999 16.5473L24.8372 16.5076H24.8994H24.959V16.5573C24.959 16.5821 24.9267 16.7363 24.8869 16.8979C24.8472 17.0594 24.7875 17.3006 24.7577 17.4348C24.7254 17.5666 24.6906 17.6909 24.6806 17.7083L24.6582 17.7381L24.616 17.6809C24.5936 17.6486 24.4892 17.5144 24.3848 17.3801C24.2804 17.2459 24.1635 17.0893 24.1238 17.0321L24.0542 16.9252L24.0268 16.965L23.9995 17.0023L23.9299 17.308L23.8603 17.6138L23.8254 17.671L23.7906 17.7257H23.7384H23.6887L23.6763 17.6884Z" fill="#6F7071" style="fill:#6F7071;fill:color(display-p3 0.4353 0.4392 0.4431);fill-opacity:1;"/>
<path d="M25.1529 17.6959L25.143 17.6685L25.2499 17.231C25.3071 16.9898 25.3618 16.7686 25.3692 16.7388L25.3817 16.6841L25.24 16.6766L25.0958 16.6692L25.0883 16.6244L25.0784 16.5797L25.1082 16.5449L25.138 16.5076H25.5084H25.8764L25.8913 16.5349L25.9087 16.5598L25.8938 16.6194L25.8788 16.6791L25.7247 16.6866L25.5681 16.694L25.4513 17.1887L25.3369 17.6834L25.3021 17.7033C25.2847 17.7157 25.2449 17.7257 25.2151 17.7257H25.1629L25.1529 17.6959Z" fill="#6F7071" style="fill:#6F7071;fill:color(display-p3 0.4353 0.4392 0.4431);fill-opacity:1;"/>
<path d="M25.7919 17.7033C25.7769 17.6909 25.7993 17.5815 25.9311 17.0445L26.0529 16.5473L26.0827 16.5275L26.115 16.5076H26.3935H26.6719L26.6868 16.5548L26.6992 16.5995L26.6843 16.6418L26.6694 16.6816H26.4482H26.2294L26.202 16.7313L26.1747 16.781L26.1697 16.873L26.1648 16.9675L26.3711 16.9749L26.5749 16.9824V17.0545V17.1266L26.4457 17.139C26.3736 17.1489 26.2642 17.1564 26.2045 17.1614L26.0927 17.1663L26.0504 17.3329L26.0081 17.4995L26.0231 17.5144C26.0305 17.5218 26.13 17.5268 26.2443 17.5268H26.4506V17.584C26.4506 17.6138 26.4407 17.6536 26.4283 17.6735L26.4059 17.7083L26.1026 17.7108C25.936 17.7133 25.7968 17.7083 25.7919 17.7033Z" fill="#6F7071" style="fill:#6F7071;fill:color(display-p3 0.4353 0.4392 0.4431);fill-opacity:1;"/>
<path d="M26.6494 17.676C26.6494 17.6262 26.6942 17.4274 26.8259 16.8854L26.903 16.5697L26.9278 16.5399L26.9527 16.5076H27.1068H27.2585L27.3529 16.5349L27.4499 16.5598L27.4847 16.6493L27.522 16.7363L27.5046 16.8133C27.4946 16.8581 27.4698 16.9302 27.4499 16.9749L27.4101 17.057L27.2933 17.1291L27.1764 17.2011L27.2858 17.4075L27.3927 17.6138L27.3952 17.6561V17.7008L27.3306 17.7157L27.2659 17.7331L27.2311 17.6959C27.2112 17.6785 27.1491 17.5666 27.0894 17.4522L26.985 17.2434L26.9552 17.2335L26.9278 17.226L26.8856 17.4199L26.8433 17.6138L26.8085 17.671L26.7737 17.7257H26.7116H26.6494V17.676ZM27.1938 16.9799L27.2883 16.9327L27.3032 16.8755L27.3181 16.8208L27.2883 16.7562L27.2585 16.694L27.1814 16.6866L27.1043 16.6791L27.077 16.7139L27.0472 16.7487L27.0248 16.8705C27.0124 16.9376 27.0074 16.9998 27.0124 17.0097C27.0323 17.042 27.0944 17.0321 27.1938 16.9799Z" fill="#6F7071" style="fill:#6F7071;fill:color(display-p3 0.4353 0.4392 0.4431);fill-opacity:1;"/>
<path d="M27.5567 17.7008L27.5393 17.6735L27.6711 17.134L27.8003 16.5946L27.8525 16.5523L27.9047 16.5076H28.1707H28.4367L28.4517 16.5349L28.4691 16.5598L28.4541 16.6219L28.4392 16.6816H28.2155H27.9942L27.9694 16.7288C27.9545 16.7537 27.9371 16.8208 27.9271 16.878L27.9097 16.9799H28.126H28.3423L28.3572 17.0197L28.3721 17.0594L28.3323 17.0967L28.2925 17.1365L28.0763 17.1514L27.8575 17.1663L27.8376 17.2409C27.8277 17.2832 27.8003 17.4025 27.778 17.5069L27.7357 17.6959L27.6835 17.7108C27.6064 17.7307 27.5741 17.7282 27.5567 17.7008Z" fill="#6F7071" style="fill:#6F7071;fill:color(display-p3 0.4353 0.4392 0.4431);fill-opacity:1;"/>
<path d="M28.208 17.7109L28.1931 17.6959L28.208 17.6562C28.218 17.6313 28.305 17.502 28.4019 17.3653C28.4989 17.2286 28.6654 16.9899 28.7723 16.8383L28.9638 16.5574H29.011H29.0557L29.0707 16.6518C29.093 16.7712 29.1999 17.2733 29.2472 17.4647L29.2844 17.6139L29.2695 17.6711L29.2546 17.7258H29.195H29.1378L29.103 17.6586C29.0831 17.6189 29.0607 17.5468 29.0508 17.4971L29.0334 17.4026H28.8121H28.5909L28.5237 17.4971C28.484 17.5468 28.4268 17.6189 28.392 17.6586L28.3298 17.7258H28.2776C28.2478 17.7258 28.218 17.7183 28.208 17.7109ZM28.9861 17.1813C28.9861 17.1416 28.9787 17.0745 28.9712 17.0322L28.9563 16.9551H28.9215H28.8867L28.7997 17.0745C28.7525 17.1391 28.7127 17.1987 28.7127 17.2087V17.2261L28.832 17.236C28.8966 17.241 28.9563 17.246 28.9687 17.2485L28.9861 17.2534V17.1813Z" fill="#6F7071" style="fill:#6F7071;fill:color(display-p3 0.4353 0.4392 0.4431);fill-opacity:1;"/>
<path d="M29.6872 17.6835L29.6052 17.6437L29.5456 17.5716L29.4859 17.4996L29.4561 17.3976L29.4287 17.2932L29.4461 17.1814L29.4635 17.067L29.5132 16.9676C29.5406 16.9129 29.5903 16.8308 29.6226 16.7886L29.6848 16.709L29.7941 16.632L29.9035 16.5574L29.9856 16.54C30.0303 16.5325 30.0825 16.5151 30.0999 16.5002L30.1297 16.4753L30.264 16.4903L30.3982 16.5027L30.4753 16.5425L30.5524 16.5847V16.6817V16.7811H30.5275C30.5126 16.7811 30.4579 16.7587 30.4032 16.7314L30.3063 16.6817H30.1919H30.0775L29.9856 16.719C29.8787 16.7662 29.7966 16.8358 29.7295 16.9452L29.6823 17.0247L29.6599 17.1416L29.6375 17.2559L29.6649 17.3405L29.6897 17.4275L29.7494 17.4822L29.8115 17.5393H29.9632H30.1173L30.2018 17.4971C30.2491 17.4722 30.3013 17.4523 30.3212 17.4523H30.3535V17.512V17.5741L30.3112 17.6164C30.2864 17.6388 30.2317 17.6736 30.1869 17.691L30.1074 17.7258H29.9383H29.7693L29.6872 17.6835Z" fill="#6F7071" style="fill:#6F7071;fill:color(display-p3 0.4353 0.4392 0.4431);fill-opacity:1;"/>
<path d="M30.5773 17.7058L30.5525 17.6959V17.6462C30.5525 17.6014 30.7539 16.7338 30.7986 16.5822L30.8185 16.52L31.1342 16.5126L31.4499 16.5051L31.4425 16.5872L31.435 16.6692L31.2013 16.6816L30.9652 16.6941L30.9328 16.8184C30.9154 16.888 30.9005 16.9501 30.9005 16.9625V16.9799H31.1243H31.348V17.0247C31.348 17.0471 31.3381 17.0819 31.3256 17.1018L31.3032 17.1341L31.077 17.149L30.8508 17.1614L30.8284 17.2509C30.8135 17.3006 30.7961 17.3827 30.7862 17.4349L30.7713 17.5269H30.9826H31.1964L31.2113 17.5517L31.2262 17.5766L31.1914 17.6412L31.1566 17.7083L30.8781 17.7108C30.7265 17.7133 30.5898 17.7108 30.5773 17.7058Z" fill="#6F7071" style="fill:#6F7071;fill:color(display-p3 0.4353 0.4392 0.4431);fill-opacity:1;"/>
<path d="M13.0762 17.6487C13.0762 17.6164 13.1259 17.3827 13.188 17.1291C13.2502 16.8756 13.2999 16.6494 13.2999 16.627V16.5847L13.3422 16.5425L13.3844 16.5027L13.633 16.5126L13.8841 16.5251L13.9985 16.5748L14.1128 16.627L14.1576 16.7413L14.2023 16.8557L14.1874 17.0024L14.175 17.1465L14.1252 17.2584L14.0755 17.3703L13.9811 17.4747L13.8866 17.5791L13.7872 17.6338L13.6852 17.686L13.3819 17.6959L13.0762 17.7059V17.6487ZM13.6355 17.4996L13.7349 17.4722L13.8046 17.4076C13.8443 17.3703 13.8965 17.3007 13.9214 17.251L13.9686 17.1615L13.986 17.0347L14.0034 16.9054L13.9711 16.8333L13.9413 16.7612L13.8766 16.7364C13.8394 16.7214 13.7474 16.704 13.6728 16.6966L13.5361 16.6842L13.5062 16.7016L13.4789 16.719L13.3894 17.0894C13.3397 17.2907 13.2999 17.4747 13.2999 17.4921V17.5269H13.4192H13.5361L13.6355 17.4996Z" fill="#6F7071" style="fill:#6F7071;fill:color(display-p3 0.4353 0.4392 0.4431);fill-opacity:1;"/>
<path d="M14.7492 17.6462C14.8636 17.1465 14.9978 16.5872 15.0128 16.5573L15.0326 16.52L15.2042 16.5126L15.3757 16.5051L15.4677 16.5325L15.5597 16.5598L15.5994 16.5971L15.6367 16.6344V16.7463V16.8581L15.5895 16.9501C15.5646 16.9998 15.5224 17.062 15.495 17.0844L15.4503 17.1266L15.3384 17.1515C15.2763 17.1664 15.1843 17.1788 15.1346 17.1788H15.0426L15.0177 17.2733C15.0028 17.323 14.9804 17.4224 14.9655 17.4896C14.9506 17.5592 14.9332 17.6337 14.9257 17.6586L14.9133 17.7009H14.8238H14.7368L14.7492 17.6462ZM15.3384 16.9725L15.3981 16.9427L15.4229 16.8631L15.4453 16.7811L15.413 16.7438L15.3832 16.709L15.2962 16.6916L15.2116 16.6742L15.1868 16.699C15.1743 16.7115 15.1495 16.7786 15.1296 16.8507L15.0973 16.9799L15.1097 16.9924C15.1172 16.9998 15.1569 17.0048 15.1992 17.0048H15.2763L15.3384 16.9725Z" fill="#6F7071" style="fill:#6F7071;fill:color(display-p3 0.4353 0.4392 0.4431);fill-opacity:1;"/>
<path d="M8.90458 15.461L8.80017 15.4088L8.75294 15.3417C8.72808 15.3069 8.69327 15.2298 8.67587 15.1726L8.64355 15.0707L8.68333 14.8992C8.70322 14.8072 8.94435 13.9247 9.21781 12.9403C9.49375 11.9558 9.80201 10.8421 9.90642 10.4667C10.2495 9.23121 10.2967 9.06217 10.3166 9.03731L10.3365 9.01245L10.9605 9.01991L11.5844 9.02737V9.06217C11.5844 9.09449 11.2389 10.3598 11.0251 11.1131C10.856 11.7022 10.1674 14.2056 10.1674 14.223V14.2454L12.7454 14.2404L15.3258 14.2329L15.3705 14.0589C15.5271 13.4623 16.7378 9.1268 16.7627 9.07709L16.7925 9.01742L17.414 9.02239C17.7546 9.02488 18.0404 9.03234 18.0454 9.0398C18.0554 9.04974 17.9634 9.38534 17.1902 12.1696C17.0063 12.8259 16.7552 13.7333 16.6309 14.1832C16.5066 14.6357 16.3823 15.0608 16.355 15.1304L16.3053 15.2572L16.2133 15.3467L16.1213 15.4361L16.0119 15.4759L15.9025 15.5132H12.457H9.01148L8.90458 15.461Z" fill="#6F7071" style="fill:#6F7071;fill:color(display-p3 0.4353 0.4392 0.4431);fill-opacity:1;"/>
<path d="M17.1706 15.3715C17.2029 15.2423 17.4962 14.1808 17.8542 12.8906C17.9213 12.6444 18.0233 12.2765 18.078 12.0702C18.1327 11.8663 18.1898 11.6824 18.2023 11.6675L18.2271 11.6351H21.4439H24.6583L24.6856 11.5307C24.7005 11.4711 24.7801 11.1852 24.8621 10.8943C24.9417 10.6035 25.0088 10.3499 25.0088 10.33V10.2927H21.8044H18.5975L18.5851 10.2728L18.5752 10.253L18.6199 10.1063C18.6448 10.0243 18.7069 9.80549 18.7566 9.62153C18.8088 9.43757 18.866 9.22626 18.8859 9.15417L18.9207 9.0249H22.5502H26.1797L26.2741 9.07462L26.3711 9.12185L26.4233 9.18897L26.4755 9.2561L26.5028 9.35553L26.5302 9.45746L26.5153 9.55938C26.5004 9.64888 26.1996 10.7576 25.8789 11.8962L25.762 12.3213L25.6974 12.4456L25.6352 12.5699L25.5259 12.6693L25.4165 12.7712L25.2698 12.8433L25.1207 12.9154L22.1375 12.9204L19.1544 12.9254L19.1121 13.0447C19.0897 13.1093 18.9406 13.6363 18.7815 14.2131C18.6249 14.7873 18.4782 15.3168 18.4558 15.3864L18.4185 15.5132H17.7772H17.1333L17.1706 15.3715Z" fill="#6F7071" style="fill:#6F7071;fill:color(display-p3 0.4353 0.4392 0.4431);fill-opacity:1;"/>
<path d="M25.8342 15.4212C25.8416 15.3814 25.9237 15.0831 26.0156 14.755C26.1076 14.4268 26.2195 14.0241 26.2642 13.86C26.309 13.696 26.5103 12.9701 26.7117 12.2442C27.1418 10.6929 27.2984 10.1261 27.3953 9.77064C27.4351 9.62646 27.4997 9.39775 27.537 9.26102L27.6066 9.01243L28.248 9.00497L28.8869 9V9.03232C28.8869 9.06961 28.8123 9.34306 28.3773 10.9142C28.0119 12.2317 27.9994 12.2815 27.547 13.9222C27.3257 14.7227 27.1343 15.4013 27.1219 15.4336L27.097 15.4883H26.4606H25.8242L25.8342 15.4212Z" fill="#6F7071" style="fill:#6F7071;fill:color(display-p3 0.4353 0.4392 0.4431);fill-opacity:1;"/>
<path d="M28.208 15.4709L28.1931 15.4486L28.2155 15.3616C28.2279 15.3168 28.2602 15.2 28.2901 15.103C28.3423 14.9315 28.6331 13.8924 28.7027 13.6239C28.7226 13.5493 28.7723 13.3703 28.8121 13.2261C29.0383 12.4157 29.2024 11.8265 29.3018 11.4735C29.3615 11.2548 29.4535 10.9192 29.5082 10.7277C29.5629 10.5363 29.6747 10.1286 29.7568 9.82038C29.8413 9.51212 29.9184 9.23369 29.9283 9.19889L29.9482 9.13674L29.9954 9.12928L30.0427 9.12183L30.3584 9.75077C30.5324 10.0963 30.6915 10.4021 30.7114 10.4294L30.7487 10.4792L30.7512 10.4369V10.3921H30.7884H30.8257V10.4195C30.8257 10.4369 31.0172 10.8272 31.2483 11.2896L31.671 12.1323V12.2516V12.3734L31.4423 12.5823C31.318 12.6966 30.9127 13.0795 30.5423 13.4325L29.8686 14.0738L29.809 14.1708L29.7518 14.2702H29.717H29.6822V14.2329V14.1956H29.6598C29.6474 14.1956 29.6076 14.2106 29.5728 14.2305L29.5057 14.2653L28.9538 14.7823C28.6505 15.0682 28.3622 15.3442 28.31 15.3964L28.2205 15.4908L28.208 15.4709Z" fill="#EB7826" style="fill:#EB7826;fill:color(display-p3 0.9216 0.4706 0.1490);fill-opacity:1;"/>
<path d="M29.3987 15.2695C29.431 15.1502 29.4783 14.9687 29.5081 14.8668C29.5355 14.7649 29.5926 14.5586 29.6324 14.4119L29.7045 14.1434L29.7492 14.0713L29.7965 13.9967L30.4677 13.3578C30.8381 13.0048 31.2433 12.622 31.3676 12.5076L31.5963 12.2988V12.2516V12.2068L31.1737 11.3641L30.7511 10.5239V10.4543C30.7511 10.3822 30.8356 10.049 30.9873 9.52202C31.032 9.36541 31.0767 9.20382 31.0842 9.16653L31.1016 9.09692L31.1414 9.10438L31.1836 9.11184L31.9767 10.6854L32.7697 12.2591L32.6603 12.3635C32.6006 12.4206 32.2451 12.7587 31.8698 13.1117C31.4944 13.4672 31.0867 13.8525 30.9624 13.9719C30.8406 14.0887 30.6442 14.2752 30.5274 14.3821C30.4105 14.4914 30.1097 14.7748 29.8586 15.016C29.6075 15.2546 29.3888 15.4585 29.3714 15.4684L29.3416 15.4858L29.3987 15.2695Z" fill="#0D8040" style="fill:#0D8040;fill:color(display-p3 0.0510 0.5020 0.2510);fill-opacity:1;"/>
</g>
<defs>
<clipPath id="clip0_654_21">
<rect width="40" height="26" fill="white" style="fill:white;fill-opacity:1;"/>
</clipPath>
</defs>
</svg>
